<svg width="20" height="20" viewBox="0 0 20 20" fill="none" xmlns="http://www.w3.org/2000/svg">
<path d="M3.33423 11.6667C3.01235 11.6678 2.71863 11.4835 2.57969 11.1931C2.44075 10.9028 2.48145 10.5584 2.68423 10.3084L10.9342 1.80841C11.0617 1.66128 11.274 1.62202 11.4457 1.71383C11.6173 1.80564 11.7025 2.00406 11.6509 2.19174L10.0509 7.20841C9.95513 7.46472 9.99129 7.75171 10.1476 7.97626C10.304 8.20081 10.5606 8.3343 10.8342 8.33341H16.6676C16.9894 8.33231 17.2832 8.51668 17.4221 8.80703C17.561 9.09737 17.5203 9.44177 17.3176 9.69174L9.06756 18.1917C8.9401 18.3389 8.72777 18.3781 8.55612 18.2863C8.38448 18.1945 8.29927 17.9961 8.3509 17.8084L9.9509 12.7917C10.0467 12.5354 10.0105 12.2484 9.85415 12.0239C9.6978 11.7993 9.44118 11.6659 9.16756 11.6667H3.33423" stroke="#3B82F6" stroke-width="1.66667" stroke-linecap="round" stroke-linejoin="round"/>
</svg>
